Coordinates
version=1
nRows=34
nColumns=38
inDegrees=no

Units are S.I. units (second, meters, Newtons, ...)
If the header above contains a line with 'inDegrees', this indicates whether rotational values are in degrees (yes) or radians (no).

endheader
time	pelvis_tilt	pelvis_list	pelvis_rotation	pelvis_tx	pelvis_ty	pelvis_tz	hip_flexion_r	hip_adduction_r	hip_rotation_r	knee_angle_r	ankle_angle_r	subtalar_angle_r	mtp_angle_r	hip_flexion_l	hip_adduction_l	hip_rotation_l	knee_angle_l	ankle_angle_l	subtalar_angle_l	mtp_angle_l	lumbar_extension	lumbar_bending	lumbar_rotation	arm_flex_r	arm_add_r	arm_rot_r	elbow_flex_r	pro_sup_r	wrist_flex_r	wrist_dev_r	arm_flex_l	arm_add_l	arm_rot_l	elbow_flex_l	pro_sup_l	wrist_flex_l	wrist_dev_l
0	-0.056193	1.29514	1.62995	0.663853	-0.503787	1.02183	0.382526	-0.0723754	-0.172949	0.500644	-0.125874	0	0	0.183057	-0.0127821	-0.152136	0	-0.501455	0	0	0.480321	0.0299948	0.0590915	-0.425752	-0.20182	0.11996	0.445301	1.4213	0	0	-0.155824	-0.194979	0.506884	0.290998	1.5708	0	0
0.01	-0.0584491	1.2951	1.63328	0.664216	-0.503624	1.02175	0.381775	-0.0717306	-0.167193	0.500564	-0.123894	0	0	0.183351	-0.012536	-0.15115	0	-0.501622	0	0	0.482868	0.028532	0.0733853	-0.416107	-0.204997	0.153147	0.436357	1.40082	0	0	-0.152578	-0.208126	0.527536	0.324864	1.5708	0	0
0.02	-0.0571558	1.29482	1.63308	0.664486	-0.503637	1.02179	0.381108	-0.0709016	-0.165797	0.498819	-0.123846	0	0	0.184357	-0.0131848	-0.148799	0	-0.501856	0	0	0.482901	0.0279128	0.0737526	-0.410149	-0.209093	0.159339	0.447785	1.38662	0	0	-0.14445	-0.212914	0.546115	0.337138	1.5708	0	0
0.03	-0.0564545	1.29511	1.63345	0.664757	-0.503816	1.02187	0.380338	-0.0705761	-0.166902	0.497552	-0.124027	0	0	0.185114	-0.0136508	-0.146254	0	-0.501672	0	0	0.48117	0.0275544	0.0753888	-0.404872	-0.212465	0.157274	0.462528	1.37386	0	0	-0.134481	-0.218312	0.567049	0.351012	1.5708	0	0
0.04	-0.0587191	1.29953	1.63467	0.665068	-0.504338	1.02226	0.376645	-0.0705842	-0.166845	0.498374	-0.124104	0	0	0.181391	-0.0137436	-0.147869	0	-0.501625	0	0	0.472061	0.0278753	0.0795123	-0.397253	-0.21642	0.153341	0.480495	1.36786	0	0	-0.120838	-0.223156	0.587736	0.365889	1.5708	0	0
0.05	-0.0636234	1.31245	1.63417	0.665542	-0.505214	1.02328	0.365141	-0.0694235	-0.162498	0.50008	-0.12435	0	0	0.168064	-0.0144298	-0.157468	0	-0.501267	0	0	0.449125	0.0301233	0.0889232	-0.385935	-0.221136	0.145524	0.502514	1.37021	0	0	-0.101604	-0.227609	0.609892	0.382721	1.5708	0	0
0.06	-0.0671964	1.32399	1.6361	0.665845	-0.50584	1.02432	0.35313	-0.069035	-0.162784	0.498878	-0.124969	0	0	0.156513	-0.0148007	-0.162449	0	-0.501566	0	0	0.427961	0.0309453	0.0960048	-0.377095	-0.225597	0.134118	0.529884	1.38574	0	0	-0.0844387	-0.234008	0.627069	0.406394	1.5708	0	0
0.07	-0.068244	1.33064	1.63783	0.666075	-0.50609	1.0251	0.345017	-0.0688348	-0.165672	0.495831	-0.126446	0	0	0.150199	-0.0152162	-0.163892	0	-0.502561	0	0	0.414887	0.0314449	0.103552	-0.374919	-0.228953	0.115968	0.564439	1.41572	0	0	-0.0711065	-0.242435	0.63838	0.437639	1.5708	0	0
0.08	-0.069021	1.33455	1.6404	0.666255	-0.506247	1.02576	0.339398	-0.0689912	-0.169567	0.492077	-0.128486	0	0	0.147109	-0.0153234	-0.162875	0	-0.50398	0	0	0.40626	0.0318268	0.112618	-0.37749	-0.230815	0.0913492	0.605677	1.45835	0	0	-0.0605729	-0.252407	0.642677	0.476857	1.5708	0	0
0.09	-0.0719231	1.33844	1.64517	0.666492	-0.506452	1.02645	0.3336	-0.0695089	-0.173083	0.487969	-0.130317	0	0	0.144199	-0.0149696	-0.161446	0	-0.505706	0	0	0.395974	0.0316756	0.123081	-0.382912	-0.228153	0.0511665	0.653779	1.5361	0	0	-0.0526513	-0.263372	0.634877	0.525848	1.5708	0	0
0.1	-0.0761914	1.34138	1.65189	0.666726	-0.506836	1.02712	0.329458	-0.0704582	-0.174982	0.485374	-0.131722	0	0	0.142895	-0.0141181	-0.158094	0	-0.507326	0	0	0.38715	0.0303935	0.132474	-0.387569	-0.229822	0.029948	0.706327	1.5708	0	0	-0.0460661	-0.275554	0.625767	0.580295	1.5708	0	0
0.11	-0.0823432	1.34765	1.66227	0.666855	-0.507617	1.0281	0.321956	-0.0720673	-0.178143	0.483149	-0.132845	0	0	0.139264	-0.0128912	-0.151764	0.00144654	-0.508404	0	0	0.372755	0.0278122	0.140599	-0.390544	-0.233256	0.0153481	0.763483	1.5708	0	0	-0.0383068	-0.287591	0.61245	0.638949	1.5708	0	0
0.12	-0.0866	1.35402	1.6682	0.667289	-0.508095	1.02904	0.314144	-0.0719066	-0.178922	0.480158	-0.134144	0	0	0.134302	-0.0127765	-0.147365	0.00362937	-0.509149	0	0	0.357359	0.0261463	0.149419	-0.394284	-0.237721	0.00334464	0.82566	1.5708	0	0	-0.0354858	-0.298886	0.58763	0.704428	1.5708	0	0
0.13	-0.0856886	1.35863	1.66585	0.668128	-0.508222	1.02976	0.308219	-0.0691803	-0.176367	0.476387	-0.135823	0	0	0.129561	-0.0142987	-0.144332	0.00330903	-0.509769	0	0	0.344576	0.0259138	0.159455	-0.399007	-0.243345	-0.00521945	0.890745	1.5708	0	0	-0.0383011	-0.309466	0.554932	0.77558	1.5708	0	0
0.14	-0.087238	1.36024	1.66641	0.668774	-0.508313	1.03022	0.305367	-0.0678175	-0.173957	0.472558	-0.137507	0	0	0.129463	-0.014893	-0.143421	0.0060098	-0.509876	0	0	0.336306	0.0242735	0.169547	-0.405246	-0.250911	-0.00965811	0.957755	1.5708	0	0	-0.0407535	-0.319552	0.527338	0.845968	1.5708	0	0
0.15	-0.090415	1.36019	1.66871	0.66924	-0.508418	1.0305	0.304922	-0.0675895	-0.171438	0.470489	-0.139119	0	0	0.133005	-0.0151175	-0.145946	0.0131605	-0.50816	0	0	0.328769	0.0215574	0.178747	-0.412296	-0.258975	-0.015437	1.02874	1.5708	0	0	-0.0462219	-0.328236	0.495101	0.920198	1.5708	0	0
0.16	-0.0930625	1.35895	1.6699	0.66967	-0.508465	1.03059	0.306271	-0.0674333	-0.168067	0.469602	-0.140141	0	0	0.138748	-0.0155624	-0.150827	0.0228591	-0.504723	0	0	0.323222	0.0192736	0.188497	-0.41834	-0.268263	-0.0189717	1.09999	1.5708	0	0	-0.0513771	-0.336883	0.467867	0.994617	1.5708	0	0
0.17	-0.0992868	1.35822	1.67521	0.670137	-0.508585	1.03082	0.306983	-0.0680996	-0.164974	0.468747	-0.141066	0	0	0.144436	-0.0152083	-0.154582	0.0333627	-0.501047	0	0	0.319004	0.0145596	0.194811	-0.418849	-0.279223	-0.0155363	1.16632	1.5708	0	0	-0.0573867	-0.345179	0.440552	1.06764	1.5708	0	0
0.18	-0.134015	1.38503	1.69958	0.670854	-0.507053	1.03335	0.27373	-0.0704086	-0.168901	0.459311	-0.143345	0	0	0.110441	-0.0124859	-0.183226	0.0273005	-0.505461	0	0	0.281982	0.0104804	0.21053	-0.416498	-0.293131	-0.0147983	1.23478	1.5708	0	0	-0.0572258	-0.349651	0.41553	1.13794	1.5708	0	0
0.19	-0.110994	1.35933	1.68944	0.670634	-0.508779	1.03144	0.304067	-0.070805	-0.167019	0.46519	-0.143128	0	0	0.155033	-0.0141361	-0.157403	0.0574106	-0.493434	0	0	0.307214	0.00306331	0.206105	-0.422239	-0.300518	-0.0173255	1.29964	1.5708	0	0	-0.0612786	-0.358496	0.395898	1.20717	1.5708	0	0
0.2	-0.116	1.3568	1.69507	0.670887	-0.508843	1.0315	0.306364	-0.0721301	-0.166509	0.464447	-0.143783	0	0	0.163978	-0.0134888	-0.159253	0.0703759	-0.489486	0	0	0.306194	-0.00204259	0.216489	-0.428248	-0.309133	-0.0253447	1.36529	1.5708	0	0	-0.0554564	-0.364843	0.385866	1.26952	1.5708	0	0
0.21	-0.12281	1.3567	1.70168	0.671172	-0.509047	1.03178	0.306139	-0.0732424	-0.165243	0.463385	-0.144585	0	0	0.170758	-0.0130763	-0.163881	0.0846936	-0.484722	0	0	0.303114	-0.00767475	0.225609	-0.430807	-0.318576	-0.0319738	1.42632	1.5708	0	0	-0.047639	-0.369221	0.375315	1.3284	1.5708	0	0
0.22	-0.133689	1.36164	1.70984	0.671553	-0.508998	1.03238	0.30002	-0.0740084	-0.163718	0.460985	-0.145433	0	0	0.173857	-0.0144629	-0.181386	0.105656	-0.477633	0	0	0.293477	-0.0130097	0.23693	-0.430782	-0.328385	-0.0392971	1.48437	1.5708	0	0	-0.0374274	-0.372975	0.366324	1.38467	1.5708	0	0
0.23	-0.133166	1.35804	1.71051	0.671814	-0.509573	1.03225	0.304213	-0.0738247	-0.160507	0.460685	-0.145902	0	0	0.185311	-0.0147585	-0.180124	0.120513	-0.471073	0	0	0.293445	-0.0186808	0.245534	-0.430698	-0.336348	-0.0478885	1.53955	1.5708	0	0	-0.0244146	-0.377245	0.361833	1.43663	1.5708	0	0
0.24	-0.136607	1.35661	1.71348	0.672102	-0.509734	1.03232	0.305411	-0.0740123	-0.158302	0.459503	-0.146289	0	0	0.191779	-0.0144925	-0.18117	0.130625	-0.467208	0	0	0.292215	-0.0239376	0.257259	-0.432162	-0.343623	-0.0593751	1.59288	1.5708	0	0	-0.00719536	-0.38075	0.362709	1.48241	1.5708	0	0
0.25	-0.141359	1.35619	1.71729	0.672432	-0.509915	1.0325	0.305582	-0.0741994	-0.15563	0.458241	-0.146676	0	0	0.196485	-0.0141538	-0.18206	0.139579	-0.463924	0	0	0.290937	-0.0292568	0.268038	-0.431128	-0.351111	-0.0702451	1.6421	1.5708	0	0	0.0115776	-0.382847	0.364129	1.52314	1.5708	0	0
0.26	-0.146769	1.35727	1.72103	0.672756	-0.510122	1.0328	0.304301	-0.0741686	-0.152495	0.457098	-0.147113	0	0	0.199428	-0.0138359	-0.183954	0.148494	-0.460768	0	0	0.287325	-0.0337957	0.28021	-0.429856	-0.358726	-0.0834256	1.69007	1.5708	0	0	0.0343432	-0.382695	0.368588	1.55926	1.5708	0	0
0.27	-0.0366381	1.27695	1.60581	0.668703	-0.506544	1.02214	0.398422	-0.0586808	-0.15034	0.479631	-0.139512	0	0	0.303039	-0.0371828	-0.202656	0.20117	-0.413346	0	0	0.712652	0.000438395	-0.304826	0.268685	-0.465306	0.977187	1.25756	1.5708	0	0	-0.515284	-0.226437	-0.236264	1.61998	1.5708	0	0
0.28	-0.162654	1.36127	1.73466	0.673046	-0.510287	1.03353	0.298997	-0.0761722	-0.151333	0.454215	-0.148532	0	0	0.20203	-0.0108456	-0.189415	0.163794	-0.453485	0	0	0.280173	-0.0431755	0.300295	-0.425259	-0.374476	-0.111303	1.77929	1.5708	0	0	0.082254	-0.380002	0.379098	1.62022	1.5708	0	0
0.29	-0.170557	1.36121	1.74152	0.673229	-0.510246	1.03374	0.29854	-0.0773488	-0.150324	0.452936	-0.149094	0	0	0.204545	-0.00820139	-0.190719	0.169044	-0.453018	0	0	0.28233	-0.0482169	0.309296	-0.419927	-0.381979	-0.122035	1.81539	1.5708	0	0	0.106284	-0.379773	0.386599	1.6432	1.5708	0	0
0.3	-0.177282	1.36155	1.74721	0.673388	-0.510265	1.03394	0.297894	-0.0781641	-0.148672	0.452185	-0.149501	0	0	0.207098	-0.00585372	-0.193753	0.175347	-0.451219	0	0	0.282617	-0.0532001	0.319032	-0.415008	-0.388869	-0.135608	1.85044	1.5708	0	0	0.131955	-0.37869	0.395472	1.664	1.5708	0	0
0.31	-0.0511248	1.27503	1.61653	0.668931	-0.506443	1.02215	0.400837	-0.0617507	-0.146721	0.479167	-0.1397	0	0	0.319118	-0.0303606	-0.215648	0.232142	-0.400086	0	0	0.725494	0.0012484	-0.276053	0.339438	-0.462524	0.944766	1.33898	1.5708	0	0	-0.445754	-0.271899	-0.230657	1.70927	1.5708	0	0
0.32	-0.189279	1.3634	1.75769	0.673457	-0.510298	1.03433	0.295714	-0.0797938	-0.147331	0.451553	-0.150246	0	0	0.209327	-0.0011254	-0.203576	0.184078	-0.44518	0	0	0.281764	-0.0626825	0.332753	-0.399485	-0.403619	-0.160101	1.91174	1.5708	0	0	0.179711	-0.375002	0.408816	1.70066	1.5708	0	0
0.33	-0.191233	1.36236	1.75942	0.673419	-0.510234	1.03436	0.296698	-0.080167	-0.146929	0.451035	-0.150191	0	0	0.210868	0.00134114	-0.206335	0.184106	-0.445323	0	0	0.286795	-0.0660656	0.33501	-0.386928	-0.411963	-0.166106	1.93421	1.5708	0	0	0.199627	-0.373011	0.412838	1.71412	1.5708	0	0
